<svg width="113" height="32" viewBox="0 0 113 32" fill="none" xmlns="http://www.w3.org/2000/svg">
<path d="M0 31.5905V26.9689L19.1802 3.68556L20.521 6.2011H0.349791V0.351004H26.3509V4.97258L7.17071 28.2559L5.71325 25.7404H26.8756V31.5905H0Z" fill="#050505"/>
<path d="M43.6897 32C40.2306 32 37.1991 31.3175 34.5951 29.9525C32.03 28.5484 30.0284 26.6374 28.5904 24.2194C27.1912 21.8013 26.4916 19.0518 26.4916 15.9707C26.4916 12.8507 27.1718 10.1012 28.5321 7.72212C29.9312 5.30408 31.8357 3.41255 34.2453 2.04753C36.6939 0.682511 39.4728 0 42.582 0C45.6135 0 48.3147 0.66301 50.6855 1.98903C53.0563 3.31505 54.9218 5.18708 56.2821 7.60512C57.6424 10.0232 58.3226 12.8702 58.3226 16.1463C58.3226 16.4583 58.3031 16.8093 58.2643 17.1993C58.2643 17.5893 58.2448 17.9598 58.206 18.3108H32.2632V13.4552H54.3583L51.5017 14.9762C51.5405 13.1822 51.1713 11.6027 50.394 10.2377C49.6167 8.87264 48.5479 7.80012 47.1876 7.02011C45.8661 6.2401 44.331 5.85009 42.582 5.85009C40.7942 5.85009 39.2201 6.2401 37.8598 7.02011C36.5384 7.80012 35.489 8.89214 34.7117 10.2962C33.9733 11.6612 33.604 13.2797 33.604 15.1517V16.3218C33.604 18.1938 34.0316 19.8513 34.8866 21.2943C35.7416 22.7374 36.9465 23.8489 38.5011 24.6289C40.0557 25.4089 41.8436 25.7989 43.8646 25.7989C45.6135 25.7989 47.1876 25.5259 48.5867 24.9799C49.9859 24.4339 51.2296 23.5759 52.3178 22.4058L56.2238 26.9104C54.8247 28.5484 53.0563 29.816 50.9187 30.713C48.8199 31.571 46.4103 32 43.6897 32Z" fill="#050505"/>
<path d="M61.2416 31.5905V0.351004H68.1791V8.95064L67.3629 6.4351C68.2957 4.32907 69.7532 2.73004 71.7353 1.63803C73.7563 0.546008 76.2632 0 79.2558 0V6.96161C78.9449 6.88361 78.6534 6.84461 78.3813 6.84461C78.1093 6.80561 77.8372 6.78611 77.5652 6.78611C74.8057 6.78611 72.6098 7.60512 70.9774 9.24314C69.3451 10.8422 68.5289 13.2407 68.5289 16.4388V31.5905H61.2416Z" fill="#050505"/>
<g clip-path="url(#clip0_2537_738)">
<path d="M110.189 2.9634C106.151 -0.468125 98.9017 -0.997618 93.9971 1.78222L83.6527 7.64738C78.7481 10.4272 78.0394 15.4676 82.0773 18.8991C86.1152 22.3306 93.3649 22.8601 98.2695 20.0803L108.614 14.2202C113.519 11.4404 114.227 6.40001 110.189 2.96849V2.9634ZM96.4392 17.443C93.2732 19.2351 88.5929 18.894 85.9928 16.6793C83.3876 14.4646 83.8413 11.2113 87.0125 9.41914L95.8325 4.41951C98.9986 2.62737 103.679 2.96849 106.279 5.1832C108.884 7.39791 108.425 10.6512 105.259 12.4434L96.4392 17.443Z" fill="#050505"/>
<path d="M93.9987 11.7967C97.7714 9.65835 102.926 9.48015 106.943 11.0788C108.483 9.2765 108.315 6.90906 106.275 5.17802C103.67 2.96331 98.995 2.6222 95.8289 4.41433L87.0089 9.41397C83.9397 11.1552 83.4197 14.2558 85.7547 16.4654L93.9936 11.7916L93.9987 11.7967Z" fill="url(#paint0_linear_2537_738)"/>
<path d="M108.614 14.2198L106.509 15.4111L98.2698 20.0849C96.1489 21.2865 93.5946 21.8669 91.0557 21.8669C89.0622 21.8669 87.079 21.5105 85.3201 20.8079C84.1118 20.3344 83.0105 19.698 82.0776 18.9037C80.3696 17.4425 79.508 15.7064 79.457 13.9754V23.2008L79.4927 23.2211C79.2735 25.2017 80.1147 27.2483 82.0725 28.9183C86.1103 32.3498 93.355 32.8793 98.2647 30.0944L108.609 24.2292C111.408 22.6458 112.836 20.3191 112.8 17.9771V8.16113C112.759 10.4369 111.326 12.672 108.609 14.2147L108.614 14.2198Z" fill="url(#paint1_linear_2537_738)"/>
</g>
<defs>
<linearGradient id="paint0_linear_2537_738" x1="85.7802" y1="16.0683" x2="108.5" y2="3.92503" gradientUnits="userSpaceOnUse">
<stop/>
<stop offset="1" stop-color="#878787"/>
</linearGradient>
<linearGradient id="paint1_linear_2537_738" x1="115.069" y1="9.74961" x2="74.2517" y2="28.9667" gradientUnits="userSpaceOnUse">
<stop/>
<stop offset="1" stop-color="#878787"/>
</linearGradient>
<clipPath id="clip0_2537_738">
<rect width="33.3531" height="31.8816" fill="white" transform="translate(79.457)"/>
</clipPath>
</defs>
</svg>
