<svg width="40" height="40" viewBox="0 0 40 40" fill="none" xmlns="http://www.w3.org/2000/svg">
<rect width="40" height="40" rx="20" fill="#FCF2FC"/>
<path d="M17.8289 26.1424L18.3159 27.2378C18.4607 27.5639 18.697 27.8409 18.9961 28.0353C19.2952 28.2298 19.6443 28.3332 20.0011 28.3332C20.3579 28.3332 20.707 28.2298 21.0061 28.0353C21.3052 27.8409 21.5415 27.5639 21.6863 27.2378L22.1733 26.1424C22.3467 25.7538 22.6383 25.4297 23.0067 25.2165C23.3773 25.0027 23.8061 24.9116 24.2317 24.9563L25.4233 25.0832C25.778 25.1207 26.136 25.0545 26.4539 24.8926C26.7717 24.7307 27.0358 24.4801 27.2141 24.1711C27.3925 23.8623 27.4776 23.5084 27.4588 23.1522C27.4401 22.7961 27.3184 22.453 27.1085 22.1647L26.403 21.1952C26.1517 20.8474 26.0175 20.4289 26.0196 19.9998C26.0195 19.572 26.155 19.1551 26.4067 18.8091L27.1122 17.8397C27.3221 17.5513 27.4438 17.2082 27.4625 16.8521C27.4813 16.4959 27.3962 16.142 27.2178 15.8332C27.0395 15.5242 26.7754 15.2736 26.4576 15.1117C26.1397 14.9498 25.7817 14.8836 25.427 14.9211L24.2354 15.048C23.8098 15.0927 23.381 15.0016 23.0104 14.7878C22.6413 14.5734 22.3496 14.2476 22.177 13.8572L21.6863 12.7619C21.5415 12.4358 21.3052 12.1588 21.0061 11.9643C20.707 11.7699 20.3579 11.6664 20.0011 11.6665C19.6443 11.6664 19.2952 11.7699 18.9961 11.9643C18.697 12.1588 18.4607 12.4358 18.3159 12.7619L17.8289 13.8572C17.6563 14.2476 17.3646 14.5734 16.9955 14.7878C16.6249 15.0016 16.1961 15.0927 15.7705 15.048L14.5752 14.9211C14.2204 14.8836 13.8625 14.9498 13.5446 15.1117C13.2267 15.2736 12.9627 15.5242 12.7844 15.8332C12.6059 16.142 12.5209 16.4959 12.5397 16.8521C12.5584 17.2082 12.6801 17.5513 12.89 17.8397L13.5955 18.8091C13.8472 19.1551 13.9827 19.572 13.9826 19.9998C13.9827 20.4277 13.8472 20.8445 13.5955 21.1906L12.89 22.16C12.6801 22.4484 12.5584 22.7914 12.5397 23.1476C12.5209 23.5038 12.6059 23.8577 12.7844 24.1665C12.9629 24.4753 13.227 24.7258 13.5448 24.8877C13.8626 25.0495 14.2205 25.1158 14.5752 25.0785L15.7668 24.9517C16.1924 24.907 16.6212 24.9981 16.9918 25.2119C17.3623 25.4257 17.6553 25.7515 17.8289 26.1424Z" stroke="#1C171C" stroke-width="2" stroke-linecap="round" stroke-linejoin="round"/>
<path d="M19.9996 22.4998C21.3803 22.4998 22.4996 21.3805 22.4996 19.9998C22.4996 18.6191 21.3803 17.4998 19.9996 17.4998C18.6189 17.4998 17.4996 18.6191 17.4996 19.9998C17.4996 21.3805 18.6189 22.4998 19.9996 22.4998Z" stroke="#1C171C" stroke-width="2" stroke-linecap="round" stroke-linejoin="round"/>
</svg>
